<svg xmlns="http://www.w3.org/2000/svg" width="175" height="87" viewBox="0 0 175 87" fill="none" class="w-100 h-100"><path fill-rule="evenodd" clip-rule="evenodd" d="M162.36 69.09c.14.3.25.62.31.96h.05c.31 3.54.31 9.23 0 12.77h-.05c-.17.88-.62 1.66-1.26 2.24a4.06 4.06 0 0 1-2.72 1.06c-1.03 0-1.92-.36-2.62-.95a4.027 4.027 0 0 1-1.37-2.43v-7.95h-7.98c-.97-.17-1.83-.66-2.43-1.38-.59-.7-.95-1.61-.95-2.62s.4-1.99 1.06-2.72a4 4 0 0 1 2.24-1.26v-.05c3.55-.31 9.25-.31 12.8 0v.05c.33.06.66.17.96.31.42.2.8.47 1.13.79l.04.04c.32.33.6.71.79 1.13M3.34.8c.3-.14.62-.25.96-.31V.44c3.57-.31 9.3-.31 12.87 0v.05c.88.17 1.66.62 2.24 1.26a4.06 4.06 0 0 1 1.06 2.72c0 1.03-.36 1.92-.95 2.62-.61.72-1.46 1.21-2.43 1.37H9.05v7.98c-.17.97-.66 1.83-1.38 2.44-.7.59-1.61.95-2.62.95s-1.99-.4-2.72-1.06a4 4 0 0 1-1.26-2.24h-.05c-.31-3.55-.31-9.25 0-12.8h.05c.06-.33.17-.66.31-.96.2-.42.47-.8.79-1.13l.04-.04c.33-.32.71-.6 1.13-.79" fill="#ed2024"/><path fill-rule="evenodd" clip-rule="evenodd" d="M52.55 20.82V52.1h.03c.09.91.52 1.73 1.16 2.31.64.58 1.48.93 2.41.93.93 0 1.73-.33 2.36-.88.63-.55 1.07-1.33 1.2-2.2 0-5.05-.3-11.29 0-16.24a7.837 7.837 0 0 1 2.47-5.2 7.8 7.8 0 0 1 5.35-2.11c2.07 0 3.95.8 5.35 2.11a7.834 7.834 0 0 1 2.47 5.19c.29 4.9 0 11.06 0 16.09h.03c.09.91.52 1.73 1.16 2.31.64.58 1.48.93 2.41.93.93 0 1.73-.33 2.36-.88.64-.56 1.08-1.34 1.2-2.22 0-.07.02-.15.02-.23v-.24c-.29-2.61-.18-12.8 0-15.76a7.837 7.837 0 0 1 2.47-5.2 7.8 7.8 0 0 1 5.35-2.11c2.07 0 3.95.8 5.35 2.11A7.834 7.834 0 0 1 98.17 36c.29 4.9 0 11.06 0 16.09h.03c.09.91.52 1.73 1.16 2.31.64.58 1.48.93 2.41.93.93 0 1.73-.33 2.36-.88.63-.55 1.07-1.33 1.2-2.2 0-5.06-.3-11.3 0-16.25a7.837 7.837 0 0 1 2.47-5.2 7.8 7.8 0 0 1 5.35-2.11c2.07 0 3.95.8 5.35 2.11a7.834 7.834 0 0 1 2.47 5.19c.24 4.09.25 12.14 0 16.28a7.791 7.791 0 0 1-2.47 5.19 7.767 7.767 0 0 1-5.12 2.1H44.72a7.8 7.8 0 0 1-5.35-2.11 7.837 7.837 0 0 1-2.47-5.2c-.49-8.23-.49-23.25 0-31.48a7.837 7.837 0 0 1 2.47-5.2 7.8 7.8 0 0 1 5.35-2.11c2.07 0 3.95.8 5.35 2.11a7.834 7.834 0 0 1 2.47 5.19v.02l.01.04ZM11.76 57.15a7.376 7.376 0 0 0 2.32-4.88c0-9.92-.58-21.78 0-31.47a7.837 7.837 0 0 1 2.47-5.2 7.8 7.8 0 0 1 5.35-2.11c2.07 0 3.95.8 5.35 2.11a7.834 7.834 0 0 1 2.47 5.19c.47 7.89.47 23.6 0 31.49a7.791 7.791 0 0 1-2.47 5.19 7.8 7.8 0 0 1-5.35 2.11H6.72v-.46c1.95 0 3.72-.75 5.03-1.98l.01.01Zm160.08-11.12a7.834 7.834 0 0 1 2.47 5.19 7.791 7.791 0 0 1-2.47 6.26 7.8 7.8 0 0 1-5.35 2.11h-30.42a7.8 7.8 0 0 1-5.35-2.11 7.837 7.837 0 0 1-2.47-5.2c-.49-8.23-.49-23.25 0-31.48a7.837 7.837 0 0 1 2.47-5.2 7.8 7.8 0 0 1 5.35-2.11c2.07 0 3.95.8 5.35 2.11a7.834 7.834 0 0 1 2.47 5.19c.31 5.25 0 12.29 0 17.7 0 3.55 1.7 5.42 5.27 5.42h17.33c2.07 0 3.95.8 5.35 2.11v.01Z" fill="#263575"/></svg>