<svg xmlns="http://www.w3.org/2000/svg" viewBox="0 0 793 390" width="793" height="390"><style>.shp0{fill:#3d4b54}</style><path id="Layer" class="shp0" d="M146.33 108.73h55.42v124.51h67.84v-80.61h55.58v80.71h35.7v-80.73h55.45v80.61h35.07v-83.04h55.69v4.18c0 25.68.04 51.37.01 77.05-.04 31.2-25.44 55.99-56.75 55.83-42.41-.2-84.81-.15-127.22-.18-40.69-.03-81.37.1-122.06-.06-30-.12-54.68-24.87-54.75-54.78-.09-39.98.01-79.97.03-119.95-.01-1.03-.01-2.07-.01-3.54Z"/><path class="shp0" d="M587.77 231.62h5.07c35.25 0 70.49.09 105.74-.11 4.7-.03 7.62 1.22 10.38 5.18 11.06 15.84 22.54 31.39 33.86 47.06.66.91 1.21 1.91 2.16 3.44h-4.85c-50.75.01-101.5.02-152.25.02-30.42 0-55.58-24.24-55.76-54.69-.33-52.95-.1-105.89-.09-158.84 0-.63.07-1.25.14-2.43 1.4 1.07 2.42 1.78 3.37 2.59 15.82 13.49 31.61 27.03 47.49 40.44 2.12 1.79 2.95 3.58 2.98 6.36.43 35.87.99 71.73 1.53 107.6.03.93.13 1.85.23 3.38ZM27.4 285.83c9.85-11.76 19.25-23.94 29.69-35.14 7.16-7.68 9.8-15.68 9.62-26.18-.62-36.26-.24-72.53-.24-108.8v-5.41h55.2c.1 1.01.28 2.03.28 3.04.05 39.58.22 79.15.09 118.73-.1 30.83-25.79 55.48-56.61 54.92-12.55-.23-25.11-.04-37.67-.04-.12-.37-.24-.74-.36-1.12Z"/><path d="m592.56 302.82 38.68 38.62c13.25-13.25 26.22-26.24 38.96-38.99 13.36 13.29 26.38 26.25 39.28 39.09-12.82 12.7-25.84 25.62-38.97 38.63-12.56-12.61-25.5-25.6-38.67-38.83-13.43 13.55-26.35 26.59-39.01 39.36-13.5-13.38-26.54-26.29-39.43-39.06 12.92-12.8 25.96-25.74 39.16-38.82Zm157.5.72c12.27 12.2 25.28 25.13 38.15 37.92-12.84 12.69-25.86 25.56-38.54 38.09-12.43-12.4-25.38-25.33-38.01-37.92 12.49-12.38 25.56-25.35 38.4-38.09ZM91.63 57.82l-38.48 38.3C40.35 83.41 27.34 70.5 14.45 57.7c12.86-12.74 25.88-25.64 38.67-38.32C65.76 32 78.75 44.97 91.63 57.82Zm39.82 38.19L93.18 58.04c12.94-12.84 25.96-25.76 38.68-38.37 12.44 12.4 25.43 25.36 38.15 38.04-12.53 12.44-25.61 25.43-38.56 38.3Zm117.56-37.95c-12.62 12.51-25.63 25.42-38.4 38.08-12.68-12.63-25.67-25.56-38.46-38.29 12.72-12.62 25.73-25.52 38.35-38.05 12.49 12.41 25.55 25.39 38.51 38.26Z" style="fill:#00a8ec"/><path class="shp0" d="M213.46 329.27c1.06 8.56 7.08 6.41 12.17 6.4.18-.32.36-.65.54-.97-1.56-.88-3.12-1.77-5.06-2.87v-5.26h17.53v5.73c-1.28.16-2.44.31-3.62.46 2.26 3.12 4.62 4.04 7.87 2.25 2.58-1.42 4.74-3.61 7.43-5.72.38.98.81 1.73.95 2.54.68 3.73 2.32 4.98 5.68 3.34 2.76-1.34 5.06-3.6 7.93-5.72.39.77.99 1.59 1.22 2.5.86 3.44 3.4 5 6.56 3.57.71-.32 1.36-2.13 1.1-2.97-.59-1.97-1.75-3.76-2.71-5.69 6.62-1.45 8.64-.07 9.55 6.23.72 4.97-2.48 9.03-7.6 8.92-3.81-.08-7.6-.98-12.72-1.69-3.39 2.79-8.23 2.7-13.24-1.18-4.59 3.97-9.65 3.91-14.95 1.34-.57-.27-1.42.02-2.13.08-4.81.43-9.61 1.18-14.42 1.14-1.98-.02-3.94-1.74-6.2-2.83-18.34 8.28-37.26 8.95-56.21.24-5.64-2.59-5.6-2.8-4.59-9.65 21.34 12.73 42.7 12.84 64.92-.19Zm206.43-2.8c-6.91-2.96-12.65-.73-15.86 5.45-1.16 2.24-.62 3.54 1.94 3.82.79.09 1.59.01 2.38.06 4.4.27 6.79 2.54 6.18 6.9-.47 3.32-1.51 6.77-3.18 9.66-9.6 16.58-24.71 24.61-43.31 26.23-12.23 1.07-24.32-.07-35.77-5.21-3.81-1.71-5.62-4.06-4.48-7.45 7.92 2.08 15.67 4.98 23.65 6.02 17.23 2.24 33.74-.17 47.25-12.27 4.02-3.6 6.91-8.55 9.91-13.15 1.64-2.51.92-4.29-2.73-4.52-7.35-.46-9.69-4.05-6.32-10.54 2.12-4.08 5.66-7.48 8.81-10.96.98-1.09 2.76-1.97 4.2-2.02 2.62-.08 5.65-.09 7.72 1.16.88.53-.19 4.3-.39 6.82ZM50.17 359.11v5.33c-6.41 1.59-15.55-1.59-19.3-6.57-2.97-3.94-3.19-8.28-.76-12.25 2.59-4.23 5.72-8.22 9.09-11.87 2.94-3.18 6.51-5.79 9.88-8.56 1.93-1.59 4.02-2.98 6.23-4.61 1.51 1.4 2.93 2.71 4.21 3.9-5.68 4.97-11.23 9.62-16.52 14.54-2.4 2.23-4.49 4.87-6.38 7.55-3.04 4.3-1.77 8.46 3.11 10.54 1.56.66 3.3.92 4.98 1.24 1.67.33 3.37.49 5.46.76Z"/><path fill-rule="evenodd" class="shp0" d="M302.86 342.02c-2.36 0-4.77.26-7.09-.06-3.44-.48-7.12-1.3-8.14-5.24-1.04-4 .39-7.62 3.47-10.35 3.12-2.76 6.84-3.03 10.34-1.02 6.16 3.55 7.66 9.88 8.54 16.21.66 4.81-3.12 7.3-6.52 9.6-2.69 1.82-5.64 3.25-8.75 5.01-1.11-4.27-.55-6.98 3.47-8.67 2.01-.85 3.56-2.8 5.32-4.26-.23-.41-.43-.82-.64-1.22Zm-1.57-6.25c.16-.32.31-.65.47-.97-1.1-1.23-2.03-2.71-3.36-3.6-.72-.49-2.42-.36-3.12.19-.75.58-1.19 2.05-1.07 3.04.07.54 1.55 1.15 2.46 1.28 1.51.21 3.08.06 4.62.06Z"/><path class="shp0" d="M362.19 326.61c6.94-.82 9.3.96 9.82 7.03.43 5-3.01 8.37-8.64 8.45-1.59.02-3.18 0-4.76.01-8.19.02-10.15-1.45-12.58-9.44-.15-.49-.28-.99-1.45-1.95-.66 1.37-1.97 2.78-1.87 4.09.29 3.84.51 3.83-2.78 6.89-2.94-2.56-4.95-5.48-3.85-9.61.92-3.45 6.84-8.89 9.96-8.82 1.37.03 2.96.98 3.99 1.99.86.83 1.14 2.33 1.51 3.58 2.04 6.99 4.71 8.62 11.88 6.79.78-.2 1.83-2.1 1.61-2.92-.53-2.01-1.72-3.82-2.84-6.09Zm116.51-14.47h6.25c0 6.17-.03 12.22.01 18.27.03 4.34 1.04 5.3 5.42 5.37 8.68.15 8.68.15 4.96-7.55-.22-.46-.42-.92-.65-1.43 6.71-1.4 8.92.15 9.61 6.54.55 5.07-2.58 8.59-7.88 8.72-3.71.09-7.42.09-11.13-.01-3.65-.1-6.36-1.96-6.5-5.64-.29-8.01-.09-16.05-.09-24.27Zm-401.86 44.7c-1.29-5.1-.55-7.55 3.16-9.47 5.86-3.03 6.37-4.4 3.95-10.44-1.76-4.4 1.69-5.45 3.55-7.68.36.22.66.3.74.48 2.79 6.09 4.83 7.12 11.65 6.04 2.36-.37 2.91-1.49 1.86-3.56-.89-1.75-1.76-3.51-3.14-6.26 3.1.46 6.39-.02 7.49 1.31 2.28 2.77 3.83 6.43 2.02 10.34-1.36 2.93-3.68 4.41-6.9 4.48-.79.02-1.59.04-2.38.01-3.78-.13-6.47.04-9.02 4.41-2.47 4.24-8.1 6.64-12.98 10.34Zm39.5-44.62h5.78v29.57h-5.78v-29.57Zm330.77-.1h5.71v29.7h-5.71v-29.7Zm-380.69.11h5.93v29.55h-5.93v-29.55Zm358.43 43.16c-1.24-3.84-.06-6.2 3.69-8.15 5.66-2.95 6.16-4.33 3.79-10.17-1.84-4.53 1.52-5.69 3.78-7.91 7.14 14.35 3.9 21.77-11.26 26.23Zm31.79.32c-.94-3.75-.4-6.23 3.38-8.16 5.99-3.07 6.51-4.49 4.02-10.72-1.77-4.43 1.91-5.33 3.54-7.9 7.17 14.82 5.97 19.79-10.94 26.78Zm-416.28-36.8c-2.48 1.89-4.13 4.03-5.26 3.79-1.55-.33-2.72-2.47-4.05-3.84 1.29-1.23 2.5-3.31 3.91-3.45 1.34-.13 2.88 1.76 5.4 3.5Zm139.04 5.79c-1.92-2.56-3.83-3.99-3.79-5.38.03-1.4 1.99-2.76 3.1-4.14 1.39 1.26 3.55 2.34 3.92 3.85.29 1.21-1.59 2.95-3.23 5.67Z"/><path class="shp0" d="M182.49 318.95c2.57-1.81 4.09-3.7 5.36-3.55 1.4.16 3.32 2.03 3.67 3.49.58 2.38-1.29 4.24-3.68 3.91-1.5-.2-2.8-1.93-5.35-3.85Zm280.37-5.45c1.72 2.54 3.61 4.12 3.41 5.37-.21 1.36-2.37 3.32-3.68 3.32-1.24 0-3.37-2.14-3.47-3.46-.09-1.3 1.86-2.76 3.74-5.23Zm-357.68 33.6c1.97 2.49 3.98 3.92 3.9 5.24-.08 1.39-2.11 3.65-3.35 3.7-1.28.05-3.47-1.96-3.74-3.36-.25-1.26 1.57-2.92 3.19-5.58Zm-4.21 6.32c-1.46.97-3.07 2.87-4.33 2.66-1.38-.23-3.19-2.3-3.39-3.77-.14-1 2.12-3.22 3.38-3.28 1.41-.06 2.89 1.71 4.35 2.68-.01.58-.01 1.15-.01 1.71Zm263.49 4.35c-1.82-2.27-3.87-3.71-3.82-5.07.05-1.34 2.23-2.59 3.48-3.88 1.28 1.28 3.29 2.39 3.61 3.88.25 1.12-1.65 2.71-3.27 5.07Zm137.34-4.97c-2.4 1.65-3.98 3.54-5.07 3.29-1.48-.34-2.58-2.31-3.84-3.59 1.27-1.23 2.49-3.35 3.83-3.43 1.32-.07 2.76 1.92 5.08 3.73Z"/><path d="M220.29 379.77c-1.54 0-3.11.15-4.62-.06-.91-.13-2.39-.74-2.46-1.28-.12-.99.32-2.46 1.07-3.04.7-.55 2.4-.68 3.12-.19 1.33.89 2.26 2.37 3.36 3.6-.16.32-.31.65-.47.97Z" style="fill:#fff"/></svg>