<svg xmlns="http://www.w3.org/2000/svg" width="200" height="200" viewBox="0 0 200 200"><defs><clipPath id="a"><path data-name="Rectangle 2859" transform="translate(-.021)" fill="#fff" stroke="#707070" d="M0 0h200v200H0z"/></clipPath></defs><g data-name="دانش بنیان با متن" transform="translate(.021)" clip-path="url(#a)"><g data-name="Group 11178"><g data-name="header_logo copy"><g data-name="#003c8fff" fill="#003c8f"><path data-name="Path 22608" d="M87.726 3.55a25.562 25.562 0 0 1 23.977-1.1 25.187 25.187 0 0 1 14.174 19.212l-.262.123a41.211 41.211 0 0 0-4.013 2.063 20.908 20.908 0 0 0-41.752.706c-.036 7.729.01 15.47-.02 23.205v5.113c.026 7.965 0 15.924.016 23.889.02 1.712.02 3.429 0 5.139-.02 5.125-.01 10.254 0 15.377a82.108 82.108 0 0 1-4.508 2.432c-.03-6.8-.01-13.585-.01-20.379 0-1.712-.01-3.423-.02-5.135.036-6.253 0-12.507.02-18.756q0-2.59.01-5.181c-.036-7.955 0-15.91-.02-23.863a37.079 37.079 0 0 1 .3-4.659A25.215 25.215 0 0 1 87.726 3.547Z"/><path data-name="Path 22609" d="M121.577 32.482c1.489-.878 3-1.726 4.508-2.576q0 10.185-.01 20.375c.01 1.716.01 3.438 0 5.153v18.851q-2.218 1.263-4.446 2.513c-.066-7.981 0-15.966-.036-23.947-.026-1.7-.03-3.387-.01-5.083.03-5.093.04-10.192-.006-15.286Z"/><path data-name="Path 22622" d="M121.613 81.927q2.24-1.257 4.462-2.555c.026 7.965-.016 15.93.02 23.9a34.248 34.248 0 0 1-.248 4.756 25.356 25.356 0 0 1-13.245 18.76 18.7 18.7 0 0 1-8.809 2.477c-3.771-.127-7.7.48-11.3-.914a25.239 25.239 0 0 1-16.84-20.374 36.772 36.772 0 0 0 4.172-2.124 21 21 0 0 0 29.821 17.464 20.665 20.665 0 0 0 11.931-17.723c.072-7.885.006-15.775.036-23.667Z"/></g><g data-name="#00c8e9ff" fill="#00c8e9"><path data-name="Path 22645" d="M53.224 23.297a25.407 25.407 0 0 1 22.393-1.554 37.108 37.108 0 0 0-.3 4.659 20.956 20.956 0 0 0-29.7 14.318 20.608 20.608 0 0 0 6.51 19.7 41.347 41.347 0 0 0 7.248 4.665c5.321 3.02 10.617 6.084 15.934 9.116.01 1.712.026 3.423.02 5.135q-10.386-5.984-20.806-11.919a38.638 38.638 0 0 1-4.008-2.576 24.94 24.94 0 0 1-9.366-15.23 29.733 29.733 0 0 1 .9-12.783 25.2 25.2 0 0 1 11.175-13.531Z"/><path data-name="Path 22646" d="M82.935 25.576c5.913 3.448 11.89 6.784 17.8 10.228 1.473.854 2.942 1.7 4.424 2.539q8.237 4.659 16.422 9.426c-.02 1.7-.016 3.387.01 5.083q-10.439-5.969-20.874-11.954c-1.689-.955-3.333-1.982-5.044-2.907-4.24-2.412-8.5-4.8-12.677-7.3a33.234 33.234 0 0 1-.061-5.115Z"/><path data-name="Path 22647" d="M126.078 50.277c6.82 3.989 13.712 7.858 20.56 11.808a44.578 44.578 0 0 1 4.008 2.523 24.262 24.262 0 0 1 9.766 16.606c-.088 3.613.473 7.353-.751 10.841a24.928 24.928 0 0 1-12.116 14.725 26 26 0 0 1-21.693 1.247 34.191 34.191 0 0 0 .248-4.756 21.452 21.452 0 0 0 13.28 1.752 20.817 20.817 0 0 0 15.768-13.478 20.564 20.564 0 0 0-3.826-20.293c-2.736-3.357-6.758-5.18-10.421-7.333q-7.394-4.261-14.815-8.486c0-1.718 0-3.44-.008-5.156Z"/><path data-name="Path 22648" d="M79.845 76.767c6.934 4.061 13.95 7.981 20.9 12.012q2.232 1.3 4.476 2.576c4.1 2.3 8.175 4.659 12.271 6.984.448.321 1.241.547 1.081 1.278.052 1.486-.026 2.973-.068 4.471-5.9-3.438-11.848-6.806-17.767-10.212q-2.2-1.264-4.4-2.5c-5.491-3.171-11.008-6.3-16.5-9.471.027-1.709.027-3.434.007-5.138Z"/></g><g data-name="#ffaf89ff" fill="#ffaf89"><path data-name="Path 22649" d="M129.994 20.375a26.2 26.2 0 0 1 15.919 1.732 24.774 24.774 0 0 1 14.454 18.744c0 4.057.561 8.282-.943 12.165a25.5 25.5 0 0 1-8.417 11.853l-.366-.26a44.606 44.606 0 0 0-4-2.525l.412.133a20.994 20.994 0 0 0 8.96-13.64 21.52 21.52 0 0 0-1.5-12.06 20.977 20.977 0 0 0-29.021-9.749c-6.794 3.827-13.518 7.765-20.316 11.572a492.277 492.277 0 0 1-4.424-2.539c6.944-4.011 13.92-7.949 20.864-11.95a41.166 41.166 0 0 1 4.012-2.063 40.445 40.445 0 0 1 4.371-1.415Z"/><path data-name="Path 22650" d="M95.681 37.99c1.711.92 3.353 1.952 5.044 2.907-6.944 4.037-13.94 7.975-20.894 11.98v-5.113c5.3-2.923 10.411-6.167 15.8-8.918.014-.208.04-.642.05-.856Z"/><path data-name="Path 22651" d="M57.659 60.434c5.9-3.369 11.844-6.677 17.679-10.161q0 2.59-.01 5.181c-4.436 2.576-8.932 5.058-13.346 7.674a42.052 42.052 0 0 1-4.323-2.694Z"/><path data-name="Path 22652" d="M50.515 64.842a38.643 38.643 0 0 0 4.009 2.576A20.621 20.621 0 0 0 47.115 93.4a20.947 20.947 0 0 0 24.78 11.182 45.637 45.637 0 0 0 9.452-4.7c5-2.826 9.921-5.809 15.005-8.5q2.2 1.235 4.4 2.5-10.463 5.993-20.92 11.976a36.746 36.746 0 0 1-4.172 2.125 25.828 25.828 0 0 1-20.486-.567 24.436 24.436 0 0 1-14.26-22.613 24.014 24.014 0 0 1 9.606-19.959Z"/><path data-name="Path 22653" d="M126.081 74.283c4.424-2.6 8.948-5.042 13.323-7.729q2.264 1.256 4.518 2.555c-5.883 3.536-11.91 6.831-17.845 10.27q-2.226 1.3-4.462 2.555c-5.455 3.157-10.963 6.217-16.386 9.426l-4.476-2.576c6.944-4.025 13.94-7.959 20.884-11.98q2.221-1.253 4.444-2.521Z"/></g></g><g data-name="Group 11151" fill="#003c8f"><path data-name="Path 22654" d="M126.505 144.622a16.168 16.168 0 0 1 4.294 2.737c-.815 1.272-1.6 2.551-2.4 3.831-1.337-.928-2.744-1.752-4.156-2.551q1.147-1.994 2.262-4.017Z"/><path data-name="Path 22655" d="M47.197 149.266c1.5-1.3 2.935-2.664 4.456-3.94a16.549 16.549 0 0 1 1.2 7.208c.016 3.6 0 7.2 0 10.8a2.391 2.391 0 0 0 .7 1.729 2.432 2.432 0 0 0 1.738.71 20.263 20.263 0 0 0 6.213-.652c-.158-1.627-.4-3.248-.484-4.879a43.109 43.109 0 0 1 5.207-2.751c.28 2.132.364 4.287.705 6.411a2.368 2.368 0 0 0 2.172 1.722 15.432 15.432 0 0 0 6.432-.539c-.222-1.673-.36-3.351-.526-5.028 1.762-.854 3.513-1.732 5.261-2.606.2 2.079.364 4.162.631 6.243a2.328 2.328 0 0 0 2.038 1.893 13.454 13.454 0 0 0 6.632-.521 36.1 36.1 0 0 0-2.322-6.756c1.621-1.258 3.211-2.555 4.858-3.777a24.783 24.783 0 0 1 2.18 9.986 15.3 15.3 0 0 1-2.652 5.833 8.75 8.75 0 0 1-5.795 2.1c-2.812.244-6.253.03-7.955-2.561-1.169 2.01-3.733 2.245-5.821 2.535-2.862.274-6.394.129-8.161-2.511-1.181 1.869-3.575 2.2-5.6 2.481a12.935 12.935 0 0 1-7.13-.793 6.824 6.824 0 0 1-2.981-5.848c-.177-5.498.387-11.101-.996-16.489Z"/><path data-name="Path 22656" d="M154.804 149.319c1.471-1.354 2.944-2.7 4.468-3.993 1.453 2.88 1.081 6.179 1.127 9.287-.042 5.549.1 11.1-.1 16.634-1.291.753-2.622 1.433-3.959 2.091-.038-4.743-.3-9.477-.452-14.216a45.7 45.7 0 0 0-1.084-9.803Z"/><path data-name="Path 22657" d="M147.507 146.312a14.206 14.206 0 0 1 5.008 3.119c-.961 1.474-1.866 2.973-2.8 4.473-1.563-1.08-3.2-2.033-4.828-3 .867-1.536 1.788-3.038 2.62-4.592Z"/><path data-name="Path 22658" d="M76.005 148.259a17.721 17.721 0 0 1 4.946 3.119c-.915 1.512-1.874 3-2.77 4.523a76.84 76.84 0 0 0-4.862-2.995c.881-1.557 1.8-3.089 2.686-4.647Z"/><path data-name="Path 22659" d="M124.351 150.213a21.125 21.125 0 0 1 4.4 2.638c.5-.87 1-1.74 1.487-2.622a17.185 17.185 0 0 1 4.984 3.115c-.915 1.5-1.838 3-2.752 4.5a70.648 70.648 0 0 0-4.288-2.638q-.8 1.342-1.663 2.642a55.841 55.841 0 0 0-4.862-2.973q1.337-2.337 2.694-4.662Z"/><path data-name="Path 22660" d="M168.022 158.188c.659-2.006 1.349-4 2.008-6.011 3.855 2.045 7.492 5.389 8.193 9.866a10.409 10.409 0 0 1-2.264 8.126 10.971 10.971 0 0 1-8.245 2.323c-1.892-.121-4.348-.509-5.078-2.535a21.628 21.628 0 0 1 .226-7.908q1.747.119 3.491.357c.07 1.015-.693 2.775.727 3.135a16.63 16.63 0 0 0 7.194-.444 13.281 13.281 0 0 0-6.252-6.909Z"/><path data-name="Path 22661" d="M32.503 153.162a17.774 17.774 0 0 1 4.936 3.119c-.939 1.5-1.858 3.024-2.824 4.511-1.533-1.094-3.165-2.037-4.8-2.995a192.403 192.403 0 0 1 2.688-4.635Z"/><path data-name="Path 22662" d="M146.691 158.307c1.633-1.247 3.2-2.576 4.874-3.766a23.956 23.956 0 0 1 2.1 10.347 14.884 14.884 0 0 1-3.019 5.946 12.3 12.3 0 0 1-6.74 1.694 8.574 8.574 0 0 1-6.394-2.18 6.028 6.028 0 0 1-8.85.486 6.836 6.836 0 0 1-6.67 1.413 14.536 14.536 0 0 1-2.046 4.572 13.264 13.264 0 0 1-6.173 2.775 17.52 17.52 0 0 1-11.1-.658 6.3 6.3 0 0 1-3.4-4.416 21.321 21.321 0 0 1 2-12.684q1.866.547 3.693 1.213a15.773 15.773 0 0 0-1.2 8.094c.292 1.554 2.068 1.869 3.379 2.1a23.585 23.585 0 0 0 10.1-1.177 70.356 70.356 0 0 0-1.762-10.371 285.217 285.217 0 0 1 5.054-3.014c.484 1.9.769 3.865 1.4 5.728.693 2.158 5 1.847 4.882-.616.134-1.227.2-2.456.342-3.682h4.2q.012 2.654 0 5.309a6.911 6.911 0 0 0 3.651.174c-.176-1.889-.384-3.765-.548-5.666 1.736-.87 3.487-1.728 5.226-2.6.246 2.121.376 4.249.647 6.366a2.415 2.415 0 0 0 2.256 1.982 12.7 12.7 0 0 0 6.414-.608 38.2 38.2 0 0 0-2.316-6.761Z"/><path data-name="Path 22663" d="M39.328 159.802a52.527 52.527 0 0 1 5-3.115 40.066 40.066 0 0 1 1.77 11.168 12.459 12.459 0 0 1-1.9 6.3 6.219 6.219 0 0 1-3.406 2.482 22.867 22.867 0 0 1-10.51 1.44c-2.8-.331-5.923-1.585-6.89-4.457a19.451 19.451 0 0 1 1.717-13.805c1.211.414 2.426.821 3.637 1.243-.865 2.808-2.062 5.955-.9 8.839a5.955 5.955 0 0 0 4.168 1.471 24.679 24.679 0 0 0 8.992-1.3 77.728 77.728 0 0 0-1.678-10.266Z"/><path data-name="Path 22664" d="M59.277 174.51a15.1 15.1 0 0 1 4.414 2.626q.751-1.342 1.579-2.634a15.865 15.865 0 0 1 4.87 3.171c-.943 1.455-1.8 2.957-2.74 4.419a38.661 38.661 0 0 0-4.3-2.648c-.526.882-1.061 1.76-1.587 2.642-1.6-1.056-3.257-2.01-4.9-2.987.889-1.523 1.796-3.043 2.664-4.589Z"/><path data-name="Path 22665" d="M85.648 174.526a15.1 15.1 0 0 1 4.974 3.119c-.935 1.478-1.834 2.973-2.74 4.469-1.571-1.1-3.237-2.041-4.89-3a196.073 196.073 0 0 0 2.656-4.588Z"/><path data-name="Path 22666" d="M35.354 186.782a11.2 11.2 0 0 1 1.475-1.217 37.3 37.3 0 0 1 .364 6.722c.016.717-.118 1.661.643 2.079a10.166 10.166 0 0 0 3.165-.107c-.038-.862-.088-1.722-.13-2.576.476-.224.957-.444 1.437-.668.2 1.023-.05 2.273.655 3.123 1.069.654 2.384.2 3.541.083-.05-.828-.108-1.653-.168-2.477.484-.262.969-.525 1.457-.783.268 1.086-.154 2.664.965 3.347a11.4 11.4 0 0 0 5.15-.24 30.377 30.377 0 0 0-.981-2.919c.49-.357.977-.721 1.461-1.08.576 1.631 1.325 3.611.23 5.2-.6 1.035-1.934 1.106-3 1.167a6.421 6.421 0 0 1-4.4-.793 4.778 4.778 0 0 1-5.463-.02c-1.659 1.163-5.142 1.5-5.847-.886a55.613 55.613 0 0 0-.554-7.955Z"/><path data-name="Path 22667" d="M81.196 186.833c.484-.315.8-1.314 1.475-1.052a53.668 53.668 0 0 1 .272 10.617c-.384.087-.769.178-1.149.269a67.788 67.788 0 0 0-.598-9.834Z"/><path data-name="Path 22668" d="M103.683 186.796c.456-.456.911-.908 1.379-1.35a46.65 46.65 0 0 1 .5 8.086c.292 1.318 1.942.854 2.916.894a3.975 3.975 0 0 1 .647-3.5c-.268-.757.272-1.451.506-2.142a23.456 23.456 0 0 1 4.656 3.052 3.216 3.216 0 0 1-.476 4.921c-1.173-.02-2.16-.817-3.283-.969a8.934 8.934 0 0 1-4.92.486 2.288 2.288 0 0 1-1.465-2.308 34.89 34.89 0 0 0-.46-7.17m5.755 6.2c.368.581 1.245 1.239 1.774.44.847-.634-.1-1.441-.48-2.018a2.291 2.291 0 0 0-1.295 1.586m3.367-.307q-.332.963-.64 1.926c.552.2 1.107.384 1.667.571.338-1.038-.338-1.833-1.029-2.5Z"/><path data-name="Path 22669" d="M132.967 187.244c1.72-.567 3.475-1.048 5.215-1.57-.138.6-.276 1.217-.414 1.827-1.445.464-2.893.912-4.344 1.354a11.875 11.875 0 0 1 3.161 3.611 2.638 2.638 0 0 1-.063 2.315 2.678 2.678 0 0 1-1.871 1.387c-1.858.244-4.154.793-5.671-.65a15.1 15.1 0 0 1-7.593 1.086c-1.057-.1-2.464-.285-2.882-1.425a7.736 7.736 0 0 1 .376-4.427c.272.107.819.331 1.089.444-.118.991-.915 2.828.548 3.185a17.083 17.083 0 0 0 7.735-.315c-.058-.8-.122-1.607-.172-2.406l1.467-.717c.272 1.1-.2 2.751 1.015 3.369a13.081 13.081 0 0 0 4.974-.224 9.691 9.691 0 0 0-3.9-4.336c.211-.901.18-2.235 1.33-2.508Z"/><path data-name="Path 22670" d="M162.412 187.41c1.8-.733 3.709-1.132 5.555-1.728q-.207.924-.413 1.855c-1.449.422-2.894.874-4.344 1.292a8.573 8.573 0 0 1 3.457 4.709 2.651 2.651 0 0 1-1.8 2.5 9.87 9.87 0 0 1-4.586.2 5.071 5.071 0 0 1-3.417 3.926 7.568 7.568 0 0 1-2.484-.809c.084-.285.246-.854.33-1.136a3.388 3.388 0 0 0 2.591-.264 3.341 3.341 0 0 0 1.624-2.019 18.93 18.93 0 0 0-1.073-3.2q.683-.553 1.371-1.1c.49.949.468 2.588 1.8 2.775a8.443 8.443 0 0 0 4.172-.472c-.334-1.889-2.4-2.925-3.659-4.267.035-.787.051-1.84.876-2.262Z"/><path data-name="Path 22671" d="M69.752 186.397c.526.285 1.053.575 1.583.858q-.426.719-.861 1.433l-1.4-.953c.233-.448.455-.902.678-1.338Z"/><path data-name="Path 22672" d="M147.312 186.359c.517.323 1.035.65 1.559.973-.288.44-.576.882-.861 1.322l-1.411-.894c.24-.47.48-.937.713-1.401Z"/><path data-name="Path 22673" d="M78.144 186.928c.548.353 1.085.707 1.629 1.068l-.951 1.482q-.794-.508-1.587-1.007c.298-.516.603-1.03.909-1.543Z"/><path data-name="Path 22674" d="M46.487 187.776q.821.478 1.637.969c-.292.521-.59 1.035-.881 1.558-.548-.361-1.1-.711-1.641-1.064Z"/><path data-name="Path 22675" d="m68.145 189.827.877-1.512c.548.319 1.089.642 1.637.961.138-.262.418-.793.56-1.044q.815.535 1.641 1.06c-.306.485-.6.969-.911 1.455l-1.617-.924c-.154.248-.468.749-.621 1q-.783-.501-1.566-.996Z"/><path data-name="Path 22676" d="M146.527 188.347c.547.3 1.1.612 1.655.916l.659-1.011c.522.361 1.031.745 1.567 1.094-.326.468-.643.939-.969 1.409-.51-.311-1.015-.616-1.525-.92-.168.244-.51.733-.681.977-.522-.319-1.049-.638-1.571-.953.29-.509.58-1.014.865-1.512Z"/><path data-name="Path 22677" d="m158.135 188.597 1.617.965c-.3.517-.6 1.036-.881 1.554-.548-.335-1.091-.666-1.633-1 .296-.509.597-1.009.897-1.519Z"/><path data-name="Path 22678" d="M87.101 188.989a5.529 5.529 0 0 1 3.2 5.351c-.484 2.265-3.367 2.485-5.219 2-1.315-.622-.659-2.287-.667-3.4l1 .2c.02.319.058.953.08 1.268a8.645 8.645 0 0 0 3.725-.212 6.748 6.748 0 0 0-2.744-3.413c.203-.605.425-1.201.625-1.794Z"/><path data-name="Path 22679" d="M124.726 189.027q.839.454 1.671.912c-.292.531-.589 1.056-.881 1.586-.536-.315-1.065-.63-1.6-.949l-.639.991-1.6-.965c.3-.513.6-1.023.889-1.532l1.625 1.007c.148-.263.408-.788.535-1.05Z"/><path data-name="Path 22680" d="M29.247 189.285c.585.311 1.157.642 1.721.991l-.919 1.52-1.613-.945Z"/><path data-name="Path 22681" d="M97.639 193.536a4.813 4.813 0 0 1 2.786-3.811c.961-.311 1.717.422 2.434.916-.284.448-.567.894-.851 1.346-1.253-1.052-2.6.034-3.145 1.251a16.574 16.574 0 0 1 3.467 1.284 2.618 2.618 0 0 1 .01 2.243 2.654 2.654 0 0 1-1.734 1.439c-2.034.725-4.8 1.189-6.5-.426-1.233-1.839-.4-4.162.188-6.092.288.083.855.248 1.141.327a7.119 7.119 0 0 0-.38 3.989c.705 1.11 2.264.824 3.4.824.881-.16 2.114-.107 2.564-1.048-1.212-.514-3.609-.389-3.38-2.242Z"/><path data-name="Path 22682" d="M77.981 191.139c.49-.357.981-.707 1.483-1.052.681 1.784 1.387 4.059-.158 5.632a5.257 5.257 0 0 1-5.271 0 2.9 2.9 0 0 1-3.687.038 3.6 3.6 0 0 1-2.931.547 5.769 5.769 0 0 1-.865 2.1 7.911 7.911 0 0 1-5.383 1.209 2.956 2.956 0 0 1-2.66-1.76 8.521 8.521 0 0 1 .651-5.393l1.023.361c-.164 1.4-1 2.995-.118 4.316a7.333 7.333 0 0 0 5.9-.2 34.449 34.449 0 0 0-.709-4.655c.48-.293.961-.595 1.441-.878.36 1.132.3 3.223 2 3.052 1.325 0 1.141-1.566 1.379-2.436l1.265-.05c.042.737-.314 1.574.054 2.257a3.385 3.385 0 0 0 1.874.141c-.084-.878-.172-1.756-.272-2.634.506-.27 1.011-.543 1.517-.809.172 1.06-.038 2.291.621 3.214a5.463 5.463 0 0 0 3.825-.083 25.616 25.616 0 0 0-.979-2.917Z"/><path data-name="Path 22683" d="M150.581 191.146c.49-.307.865-.92 1.5-.9.617 1.748 1.249 3.948 0 5.575a2.551 2.551 0 0 1-3.4-.042c-.51-.521-1 .315-1.411.539a2.814 2.814 0 0 1-2.77-.654 4.416 4.416 0 0 1-3.725.63 5.262 5.262 0 0 1-3.187 3.831 4.784 4.784 0 0 1-2.628-.729c.038-.289.112-.866.146-1.151.831-.012 1.767.339 2.518-.153a6.017 6.017 0 0 0 1.878-2.041 54.491 54.491 0 0 0-1.145-3.3c.418-.365.835-.725 1.257-1.09.613 1.14.819 3.139 2.6 2.824 1.587.289 1.97-1.326 2.2-2.5.3 0 .9-.016 1.2-.026a8.091 8.091 0 0 0-.062 1.982 1.339 1.339 0 0 0 2.146.03 16.478 16.478 0 0 0 .43-2.006l1.221.012c-.058.7-.118 1.405-.18 2.109a3.624 3.624 0 0 0 2.318.289 24.635 24.635 0 0 0-.909-3.23Z"/><path data-name="Path 22684" d="M32.254 191.462a79.597 79.597 0 0 0 1.533-.836c.4 2.18 1.269 4.677-.016 6.738a6.406 6.406 0 0 1-4.728 1.471 3.531 3.531 0 0 1-3.417-1.532 8.3 8.3 0 0 1 .552-5.636c.25.079.755.24 1 .323-.1 1.409-.919 2.973-.134 4.3a7.178 7.178 0 0 0 5.947-.145 32.1 32.1 0 0 0-.737-4.683Z"/><path data-name="Path 22685" d="M175.267 191.475a1.693 1.693 0 0 1 2.732.539 3.888 3.888 0 0 1 .2 3.674c-.873 1.677-3.249.622-4.31-.353a3.158 3.158 0 0 1-3.307.945 5.131 5.131 0 0 1-3.276 3.858 5.615 5.615 0 0 1-2.632-.793c.088-.281.268-.844.356-1.126a3.541 3.541 0 0 0 4.276-2.212 26.454 26.454 0 0 0-1.161-3.252q.689-.571 1.383-1.14c.5.991.506 2.763 1.95 2.842 1.93.17 2.628-1.889 3.779-2.991m-.384 2.432a5.532 5.532 0 0 0 2.438.894 3.325 3.325 0 0 0-.865-2.113c-.791-.113-1.117.739-1.563 1.221Z"/><path data-name="Path 22686" d="M52.059 197.367c.54.357 1.073.711 1.613 1.064-.31.486-.613.973-.923 1.459q-.8-.484-1.613-.961.46-.783.923-1.562Z"/><path data-name="Path 22687" d="M39.047 198.952q.432-.771.865-1.536l1.495.953a4.287 4.287 0 0 1 .869-.928 15.685 15.685 0 0 1 1.449.991l-.9 1.449c-.526-.315-1.057-.634-1.587-.949-.154.258-.468.775-.625 1.031q-.781-.51-1.566-1.011Z"/></g></g></g></svg>